<svg id="Camada_1" data-name="Camada 1" xmlns="http://www.w3.org/2000/svg" viewBox="0 0 256 255"><defs><style>.cls-1{fill:#c3c3c3;}.cls-2{fill:aqua;}</style></defs><title>calmo</title><path class="cls-1" d="M0,0V255H256V0ZM14.79,15h150.5V35H14.79Zm226,225h-226V50h226Zm0-205h-60.5V15h60.5Z"/><path class="cls-1" d="M199.13,119.52a27.57,27.57,0,1,0,27.57,27.57A27.6,27.6,0,0,0,199.13,119.52Zm0,8.24c1.27,1.61,3.33,6.85,3.83,15.39h-7.65C195.81,134.61,197.86,129.37,199.13,127.76Zm-9.55,2.12a55.78,55.78,0,0,0-2.16,13.27h-7.58A19.74,19.74,0,0,1,189.58,129.88ZM179.84,151h7.58a55.7,55.7,0,0,0,2.16,13.27A19.72,19.72,0,0,1,179.84,151Zm19.29,15.4c-1.27-1.62-3.32-6.88-3.82-15.43H203C202.46,159.55,200.4,164.81,199.13,166.43Zm9.56-2.13a56,56,0,0,0,2.16-13.3h7.58A19.78,19.78,0,0,1,208.69,164.3Zm2.16-21.15a55.78,55.78,0,0,0-2.16-13.27,19.74,19.74,0,0,1,9.74,13.27Z"/><path class="cls-1" d="M61.31,144.16H47.59V135a16.55,16.55,0,0,0-.44-5,1.9,1.9,0,0,0-1.94-1,2,2,0,0,0-2.15,1.21,18,18,0,0,0-.46,5.21v24.5a16.82,16.82,0,0,0,.46,5,2,2,0,0,0,2,1.18,1.93,1.93,0,0,0,2-1.18,18.86,18.86,0,0,0,.48-5.52V152.8H61.31v2q0,8.19-1.16,11.62a11.86,11.86,0,0,1-5.12,6,17.58,17.58,0,0,1-9.76,2.57,20.11,20.11,0,0,1-9.93-2.18,10.62,10.62,0,0,1-5.19-6q-1.26-3.87-1.27-11.62V139.8a69,69,0,0,1,.39-8.56,12.11,12.11,0,0,1,2.33-5.49A13,13,0,0,1,37,121.6a19.43,19.43,0,0,1,7.9-1.52,19.39,19.39,0,0,1,10,2.35,11.29,11.29,0,0,1,5.18,5.84q1.23,3.49,1.24,10.88Z"/><path class="cls-1" d="M89.94,121.19,97.78,174h-14L83,164.46H78.12L77.29,174H63.11l7-52.76Zm-7.27,33.92q-1-9-2.09-22.15-2.1,15.15-2.63,22.15Z"/><path class="cls-1" d="M113.83,121.19v42.2h8.34V174H100.11V121.19Z"/><path class="cls-1" d="M167.82,121.19V174h-12l0-35.62L151,174h-8.5l-5-34.8V174h-12V121.19h17.74q.8,4.75,1.63,11.22l1.95,13.42L150,121.19Z"/><path class="cls-1" d="M199.34,109.06l-5.54,6.12H180.72l12-13.18H206l11.27,13.18H204.55Z"/><rect class="cls-2" x="255" width="1" height="1"/></svg>